<!-- Generated by IcoMoon.io -->
<svg version="1.1" xmlns="http://www.w3.org/2000/svg" width="30" height="32" viewBox="0 0 30 32">
<title>logo</title>
<path fill="#ff3839" d="M9.814 7.018c2.599-2.366 5.641-3.455 9.139-3.254 3.559 0.205 6.378 1.857 8.78 4.548 0.852-0.915 1.623-1.745 2.452-2.633-0.081-0.104-0.17-0.208-0.255-0.309l-0.559 0.139 0.123-0.641c-1.662-1.822-3.744-3.142-5.996-3.942l-0.617 0.795 0.17-0.942c-1.569-0.51-3.208-0.768-4.843-0.78l-0.243 1.139-0.432-1.131c-1.932 0.070-3.837 0.486-5.572 1.259-0.069 0.031-0.135 0.070-0.2 0.1l0.066 0.726-0.497-0.479-2.861 1.849 1.049 2.783c0.069 0.259 0.166 0.513 0.289 0.764l0.008 0.008z"></path>
<path fill="#ff3839" d="M13.912 6.019c-1.037 0.494-1.747 0.923-2.213 1.382v-0.069l-1.311 0.954 1.639 3.451c0.012 0.019 0.019 0.039 0.035 0.066 3.586-4.378 8.992-3.795 11.923-0.208 0.879-0.834 1.755-1.664 2.614-2.482-2.904-3.949-8.24-5.208-12.686-3.092z"></path>
<path fill="#ff3839" d="M27.034 24.456c-2.449 2.521-5.418 3.795-8.923 3.806-3.563 0.012-6.482-1.463-9.042-4-0.794 0.965-1.515 1.841-2.287 2.78 0.089 0.1 0.181 0.197 0.274 0.293l0.548-0.174-0.085 0.645c1.77 1.718 3.929 2.907 6.227 3.567l0.567-0.83-0.112 0.954c1.596 0.405 3.251 0.564 4.882 0.475l0.173-1.151 0.497 1.1c1.924-0.189 3.798-0.718 5.483-1.598 0.069-0.035 0.131-0.077 0.193-0.116l-0.112-0.718 0.524 0.448 2.742-2.023-1.218-2.714c-0.085-0.255-0.197-0.502-0.335-0.745h0.004z"></path>
<path fill="#ff3839" d="M12.613 20.758c-0.825 0.888-1.65 1.772-2.46 2.641 3.143 3.764 8.545 4.694 12.852 2.305 1.006-0.556 3.378-2.479 3.378-2.479l-1.847-3.343c-0.015-0.019-0.023-0.039-0.039-0.062-3.312 4.59-8.745 4.339-11.888 0.938h0.004z"></path>
<path fill="#ff3839" d="M7.461 4.308c-0.845 0.845-1.566 1.699-2.171 2.552l0.945 0.896-1.257-0.444c-1.226 1.841-1.943 3.671-2.302 5.432l0.902 0.483-1.006 0.096c-0.339 2.108-0.177 4.1 0.22 5.86l2.009-0.143-1.886 0.656c0.513 1.988 1.303 3.648 1.959 4.799l0.922-0.795-0.69 1.189c0.524 0.872 0.914 1.367 0.914 1.367l7.091-10.076-5.653-11.871h0.004z"></path>
</svg>
