<svg xmlns="http://www.w3.org/2000/svg" aria-hidden="true" style="position:absolute;width:0;height:0;overflow:hidden">
  <defs>
    <symbol id="icon-logo" viewBox="0 0 30 32">
      <path fill="#ff3839" d="M9.814 7.018c2.599-2.366 5.641-3.455 9.139-3.254 3.559.205 6.378 1.857 8.78 4.548.852-.915 1.623-1.745 2.452-2.633-.081-.104-.17-.208-.255-.309l-.559.139.123-.641C27.832 3.046 25.75 1.726 23.498.926l-.617.795.17-.942a16.067 16.067 0 0 0-4.843-.78l-.243 1.139-.432-1.131c-1.932.07-3.837.486-5.572 1.259-.069.031-.135.07-.2.1l.066.726-.497-.479-2.861 1.849 1.049 2.783c.069.259.166.513.289.764l.008.008z" style="fill:var(--color1, #ff3839)"/>
      <path fill="#ff3839" d="M13.912 6.019c-1.037.494-1.747.923-2.213 1.382v-.069l-1.311.954 1.639 3.451c.012.019.019.039.035.066 3.586-4.378 8.992-3.795 11.923-.208.879-.834 1.755-1.664 2.614-2.482-2.904-3.949-8.24-5.208-12.686-3.092zM27.034 24.456c-2.449 2.521-5.418 3.795-8.923 3.806-3.563.012-6.482-1.463-9.042-4l-2.287 2.78c.089.1.181.197.274.293l.548-.174-.085.645c1.77 1.718 3.929 2.907 6.227 3.567l.567-.83-.112.954c1.596.405 3.251.564 4.882.475l.173-1.151.497 1.1c1.924-.189 3.798-.718 5.483-1.598.069-.035.131-.077.193-.116l-.112-.718.524.448 2.742-2.023-1.218-2.714a4.186 4.186 0 0 0-.335-.745h.004z" style="fill:var(--color1, #ff3839)"/>
      <path fill="#ff3839" d="M12.613 20.758c-.825.888-1.65 1.772-2.46 2.641 3.143 3.764 8.545 4.694 12.852 2.305 1.006-.556 3.378-2.479 3.378-2.479l-1.847-3.343c-.015-.019-.023-.039-.039-.062-3.312 4.59-8.745 4.339-11.888.938h.004zM7.461 4.308A19.919 19.919 0 0 0 5.29 6.86l.945.896-1.257-.444c-1.226 1.841-1.943 3.671-2.302 5.432l.902.483-1.006.096c-.339 2.108-.177 4.1.22 5.86l2.009-.143-1.886.656a19.828 19.828 0 0 0 1.959 4.799l.922-.795-.69 1.189c.524.872.914 1.367.914 1.367l7.091-10.076L7.458 4.309h.004z" style="fill:var(--color1, #ff3839)"/>
    </symbol>
  </defs>
</svg>
